<?xml version="1.0" encoding="UTF-8" standalone="no"?>
<svg
   xmlns:dc="http://purl.org/dc/elements/1.1/"
   xmlns:cc="http://creativecommons.org/ns#"
   xmlns:rdf="http://www.w3.org/1999/02/22-rdf-syntax-ns#"
   xmlns:svg="http://www.w3.org/2000/svg"
   xmlns="http://www.w3.org/2000/svg"
   xmlns:sodipodi="http://sodipodi.sourceforge.net/DTD/sodipodi-0.dtd"
   xmlns:inkscape="http://www.inkscape.org/namespaces/inkscape"
   aria-hidden="true"
   focusable="false"
   data-prefix="fab"
   data-icon="apple"
   role="img"
   viewBox="0 0 450 450"
   class="svg-inline--fa fa-apple fa-w-12"
   version="1.1"
   id="svg4"
   sodipodi:docname="apple-logo.svg"
   width="450"
   height="450"
   inkscape:version="0.92.4 (5da689c313, 2019-01-14)">
  <metadata
     id="metadata10">
    <rdf:RDF>
      <cc:Work
         rdf:about="">
        <dc:format>image/svg+xml</dc:format>
        <dc:type
           rdf:resource="http://purl.org/dc/dcmitype/StillImage" />
        <dc:title></dc:title>
      </cc:Work>
    </rdf:RDF>
  </metadata>
  <defs
     id="defs8" />
  <sodipodi:namedview
     pagecolor="#ffffff"
     bordercolor="#666666"
     borderopacity="1"
     objecttolerance="10"
     gridtolerance="10"
     guidetolerance="10"
     inkscape:pageopacity="0"
     inkscape:pageshadow="2"
     inkscape:window-width="1920"
     inkscape:window-height="1017"
     id="namedview6"
     showgrid="false"
     inkscape:zoom="0.76277923"
     inkscape:cx="-350.80759"
     inkscape:cy="305.17404"
     inkscape:window-x="-8"
     inkscape:window-y="-8"
     inkscape:window-maximized="1"
     inkscape:current-layer="svg4" />
  <path
     d="m 351.5,237.74074 c -0.2,-36.7 16.4,-64.4 50,-84.8 -18.8,-26.9 -47.2,-41.7 -84.7,-44.6 -35.5,-2.8 -74.3,20.7 -88.5,20.7 -15,0 -49.4,-19.7 -76.4,-19.7 -55.8,0.9 -115.1,44.5 -115.1,133.2 q 0,39.3 14.4,81.2 c 12.8,36.7 59,126.7 107.2,125.2 25.2,-0.6 43,-17.9 75.8,-17.9 31.8,0 48.3,17.9 76.4,17.9 48.6,-0.7 90.4,-82.5 102.6,-119.3 -65.2,-30.7 -61.7,-90 -61.7,-91.9 z M 294.9,73.540738 c 27.3,-32.4 24.8,-61.9 24,-72.4999996 -24.1,1.4 -52,16.3999996 -67.9,34.8999996 -17.5,19.8 -27.8,44.3 -25.6,71.900002 26.1,2 49.9,-11.400002 69.5,-34.300002 z"
     class=""
     id="path2"
     inkscape:connector-curvature="0"
     style="fill:currentColor" />
</svg>
