<?xml version="1.0" encoding="UTF-8" standalone="no"?>
<svg
   xmlns:dc="http://purl.org/dc/elements/1.1/"
   xmlns:cc="http://creativecommons.org/ns#"
   xmlns:rdf="http://www.w3.org/1999/02/22-rdf-syntax-ns#"
   xmlns:svg="http://www.w3.org/2000/svg"
   xmlns="http://www.w3.org/2000/svg"
   xmlns:sodipodi="http://sodipodi.sourceforge.net/DTD/sodipodi-0.dtd"
   xmlns:inkscape="http://www.inkscape.org/namespaces/inkscape"
   width="315.67"
   height="42.38"
   viewBox="0 0 315.67 42.38"
   class="horseman-logo"
   version="1.1"
   id="svg24"
   sodipodi:docname="logo_text.svg"
   inkscape:version="0.92.4 (5da689c313, 2019-01-14)">
  <metadata
     id="metadata28">
    <rdf:RDF>
      <cc:Work
         rdf:about="">
        <dc:format>image/svg+xml</dc:format>
        <dc:type
           rdf:resource="http://purl.org/dc/dcmitype/StillImage" />
      </cc:Work>
    </rdf:RDF>
  </metadata>
  <sodipodi:namedview
     pagecolor="#ffffff"
     bordercolor="#666666"
     borderopacity="1"
     objecttolerance="10"
     gridtolerance="10"
     guidetolerance="10"
     inkscape:pageopacity="0"
     inkscape:pageshadow="2"
     inkscape:window-width="1920"
     inkscape:window-height="1017"
     id="namedview26"
     showgrid="false"
     inkscape:zoom="2.5446614"
     inkscape:cx="179.16858"
     inkscape:cy="102.55102"
     inkscape:window-x="-8"
     inkscape:window-y="-8"
     inkscape:window-maximized="1"
     inkscape:current-layer="svg24">
    <inkscape:grid
       type="xygrid"
       id="grid849" />
  </sodipodi:namedview>
  <defs
     id="defs4">
    <style
       id="style2">
      .cattle-letter {
        fill:#51932f;
      }
      .iq-letter {
        fill:#e4e4e4;
      }
    </style>
  </defs>
  <title
     id="title6">Wiznerd Horseman</title>
  <g
     id="g876">
    <g
       id="g872">
      <path
         class="cattle-letter"
         d="M 0.78595918,20.81 A 20.53,20.53 0 0 1 6.5559592,6.64 21.7,21.7 0 0 1 22.60596,0.06 a 21.91,21.91 0 0 1 10.74,2.5 16.69,16.69 0 0 1 6.38,5.95 0.77,0.77 0 0 1 -0.27,1.06 l -7.21,4.52 c -0.83,0.52 -1.29,0.44 -1.53,0.12 a 11.68,11.68 0 0 0 -1.16,-1.34 8.18,8.18 0 0 0 -2.2,-1.58 9.36,9.36 0 0 0 -2.49,-0.83 14.62,14.62 0 0 0 -2.5,-0.23 9.2,9.2 0 0 0 -4.36,1 8.9,8.9 0 0 0 -3,2.52 11.11,11.11 0 0 0 -1.75,3.53 14,14 0 0 0 -0.57,3.91 12.92,12.92 0 0 0 0.67,4.17 10.77,10.77 0 0 0 1.92,3.53 9.31,9.31 0 0 0 3.1,2.44 9.06,9.06 0 0 0 4.11,0.91 12.5,12.5 0 0 0 2.47,-0.24 9.48,9.48 0 0 0 2.43,-0.89 8.32,8.32 0 0 0 2.11,-1.58 c 0.5,-0.53 0.82,-0.88 1.36,-1.55 a 0.8,0.8 0 0 1 1,-0.19 l 8,4.58 a 0.78,0.78 0 0 1 0.33,1 11.78,11.78 0 0 1 -2.62,3.45 18.13,18.13 0 0 1 -4.45,3.06 23.86,23.86 0 0 1 -5.33,1.85 25.14,25.14 0 0 1 -5.56,0.65 20.19,20.19 0 0 1 -8.68,-1.85 22,22 0 0 1 -6.7600008,-4.91 22.3,22.3 0 0 1 -4.42,-6.94 20.91,20.91 0 0 1 -1.58000002,-7.87 z"
         id="path8"
         inkscape:connector-curvature="0"
         style="fill:#51932f" />
      <path
         class="cattle-letter"
         d="m 60.53596,0.29 h 9.66 a 0.73,0.73 0 0 1 0.69,0.49 l 14.27,40.22 a 0.74,0.74 0 0 1 -0.7,1 h -10.31 a 0.76,0.76 0 0 1 -0.71,-0.52 l -2.26,-7.13 a 0.73,0.73 0 0 0 -0.71,-0.52 h -10.27 a 0.73,0.73 0 0 0 -0.7,0.51 l -2.21,7.17 a 0.73,0.73 0 0 1 -0.7,0.52 h -10.39 a 0.74,0.74 0 0 1 -0.69,-1 l 14.33,-40.25 a 0.76,0.76 0 0 1 0.7,-0.49 z m 8.34,25 -2.82,-9.62 a 0.74,0.74 0 0 0 -1.42,0 l -3,9.62 a 0.73,0.73 0 0 0 0.7,0.94 h 5.79 a 0.72,0.72 0 0 0 0.75,-0.95 z"
         id="path10"
         inkscape:connector-curvature="0"
         style="fill:#51932f" />
      <path
         class="cattle-letter"
         d="m 118.48596,10.29 h -9.44 a 0.55,0.55 0 0 0 -0.56,0.55 v 30.64 a 0.55,0.55 0 0 1 -0.54,0.55 h -10.63 a 0.56,0.56 0 0 1 -0.55,-0.56 V 10.83 a 0.55,0.55 0 0 0 -0.55,-0.54 h -9.5 a 0.56,0.56 0 0 1 -0.56,-0.56 V 0.84 a 0.55,0.55 0 0 1 0.55,-0.55 h 31.78 a 0.56,0.56 0 0 1 0.55,0.56 v 8.89 a 0.55,0.55 0 0 1 -0.55,0.55 z"
         id="path12"
         inkscape:connector-curvature="0"
         style="fill:#51932f" />
      <path
         class="cattle-letter"
         d="m 159.22596,10.29 h -9.44 a 0.55,0.55 0 0 0 -0.55,0.55 v 30.64 a 0.55,0.55 0 0 1 -0.55,0.55 h -10.63 a 0.56,0.56 0 0 1 -0.56,-0.56 V 10.83 a 0.54,0.54 0 0 0 -0.54,-0.54 h -9.51 a 0.56,0.56 0 0 1 -0.55,-0.56 V 0.84 a 0.55,0.55 0 0 1 0.54,-0.55 h 31.78 a 0.55,0.55 0 0 1 0.55,0.56 v 8.89 a 0.55,0.55 0 0 1 -0.54,0.55 z"
         id="path14"
         inkscape:connector-curvature="0"
         style="fill:#51932f" />
      <path
         class="cattle-letter"
         d="M 169.83596,41.47 V 0.84 a 0.55,0.55 0 0 1 0.55,-0.55 h 10.62 a 0.55,0.55 0 0 1 0.55,0.56 v 30.64 a 0.55,0.55 0 0 0 0.55,0.54 h 14.82 a 0.56,0.56 0 0 1 0.56,0.56 v 8.89 a 0.55,0.55 0 0 1 -0.55,0.55 h -26.55 a 0.56,0.56 0 0 1 -0.55,-0.56 z"
         id="path16"
         inkscape:connector-curvature="0"
         style="fill:#51932f" />
      <path
         class="cattle-letter"
         d="m 237.78596,32.59 v 8.89 a 0.55,0.55 0 0 1 -0.54,0.55 h -29.32 a 0.56,0.56 0 0 1 -0.56,-0.56 V 0.84 a 0.55,0.55 0 0 1 0.55,-0.55 h 28.78 a 0.56,0.56 0 0 1 0.55,0.56 v 8.89 a 0.55,0.55 0 0 1 -0.54,0.55 h -17.06 a 0.54,0.54 0 0 0 -0.55,0.55 v 4.78 a 0.54,0.54 0 0 0 0.54,0.54 h 14.41 a 0.56,0.56 0 0 1 0.56,0.56 v 8.18 a 0.55,0.55 0 0 1 -0.55,0.55 h -14.41 a 0.55,0.55 0 0 0 -0.55,0.55 v 5.49 a 0.54,0.54 0 0 0 0.54,0.54 h 17.6 a 0.55,0.55 0 0 1 0.55,0.56 z"
         id="path18"
         inkscape:connector-curvature="0"
         style="fill:#51932f" />
    </g>
    <g
       transform="matrix(2.5115312,0,0,2.5115312,244.96099,-18.24382)"
       id="g857"
       style="clip-rule:evenodd;fill-rule:evenodd;stroke-linejoin:round;stroke-miterlimit:1.41420996">
      <g
         id="g861">
        <path
           d="m 252.49122,42.032929 h 11.40602 l 0.0195,-41.71283124 H 252.4911 Z"
           style="clip-rule:evenodd;fill:#e8e9ec;fill-opacity:1;fill-rule:nonzero;stroke-width:2.82314658;stroke-linejoin:round;stroke-miterlimit:1.41420996"
           id="path3780"
           inkscape:connector-curvature="0"
           sodipodi:nodetypes="ccccc"
           transform="matrix(0.39816348,0,0,0.39816348,-97.53452,7.2640228)" />
        <g
           id="g854">
          <path
             style="clip-rule:evenodd;fill:#e8e9ec;fill-opacity:1;fill-rule:nonzero;stroke-width:1.12407386;stroke-linejoin:round;stroke-miterlimit:1.41420996"
             d="m 19.476562,7.4324659 c -1.190394,-0.01574 -2.369462,0.2223158 -3.460937,0.7011719 -1.992983,0.8767729 -3.567564,2.4987412 -4.384766,4.5175782 -0.403543,0.979068 -0.611328,2.027889 -0.611328,3.087891 -0.0011,1.067869 0.215486,2.124979 0.634765,3.107421 0.420404,0.988061 1.022796,1.887439 1.779297,2.648438 1.602447,1.61467 3.785847,2.516925 6.058594,2.515625 0.639691,3.66e-4 1.270192,-0.07826 1.884766,-0.216797 -1.551807,-1.771359 -3.32545,-3.403912 -4.783816,-5.254404 -0.34826,-0.481517 -0.517631,-0.778705 -0.686888,-1.261221 -0.150621,-0.509206 -0.226562,-1.035843 -0.226562,-1.566406 -0.0011,-0.542928 0.077,-1.080287 0.234375,-1.59961 0.156246,-0.502459 0.404193,-0.971401 0.732422,-1.382812 0.314741,-0.401295 0.717158,-0.729968 1.175781,-0.957031 0.521121,-0.244 1.092704,-0.362016 1.669922,-0.353516 0.577218,-0.0085 1.148801,0.109516 1.669922,0.353516 0.458623,0.227063 0.86104,0.555736 1.175781,0.957031 0.328229,0.411411 0.576176,0.880352 0.732422,1.382812 0.157375,0.519323 0.235475,1.056682 0.234375,1.59961 0,0.38486 -0.05338,0.76505 -0.132812,1.140625 l 3.291015,3.544922 c 0.34026,-0.484863 0.634074,-1.002915 0.867188,-1.550782 0.419279,-0.982442 0.635865,-2.039552 0.634765,-3.107421 0,-1.060003 -0.207785,-2.108823 -0.611328,-3.087891 -0.817202,-2.018837 -2.391782,-3.6408052 -4.384766,-4.5175782 -1.091473,-0.478856 -2.270543,-0.7169119 -3.460937,-0.7011719 -0.0048,4e-4 -0.01082,0.00155 -0.01563,0.00195 -0.0048,-4e-4 -0.01082,-0.00164 -0.01563,-0.00195 z"
             id="path3782-6-0"
             inkscape:connector-curvature="0"
             sodipodi:nodetypes="ccccccccccccccccccccccccccccc" />
          <path
             style="clip-rule:evenodd;fill:#e8e9ec;fill-opacity:1;fill-rule:evenodd;stroke:none;stroke-width:1px;stroke-linecap:butt;stroke-linejoin:miter;stroke-miterlimit:1.41420996;stroke-opacity:1"
             d="m 17.636481,17.75 h 4.544087 L 28,24 h -4.524318 z"
             id="path4646-1-3"
             inkscape:connector-curvature="0"
             sodipodi:nodetypes="ccccc" />
        </g>
      </g>
    </g>
  </g>
</svg>
