<?xml version="1.0" encoding="UTF-8" standalone="no"?>
<svg
   xmlns:dc="http://purl.org/dc/elements/1.1/"
   xmlns:cc="http://creativecommons.org/ns#"
   xmlns:rdf="http://www.w3.org/1999/02/22-rdf-syntax-ns#"
   xmlns:svg="http://www.w3.org/2000/svg"
   xmlns="http://www.w3.org/2000/svg"
   xmlns:sodipodi="http://sodipodi.sourceforge.net/DTD/sodipodi-0.dtd"
   xmlns:inkscape="http://www.inkscape.org/namespaces/inkscape"
   width="100%"
   height="100%"
   viewBox="0 0 32 32"
   version="1.1"
   xml:space="preserve"
   style="fill-rule:evenodd;clip-rule:evenodd;stroke-linejoin:round;stroke-miterlimit:1.41421;"
   id="svg3788"
   sodipodi:docname="safari-pinned-tab.svg"
   inkscape:version="0.92.4 (5da689c313, 2019-01-14)"
   inkscape:export-xdpi="192"
   inkscape:export-ydpi="192"><metadata
     id="metadata3794"><rdf:RDF><cc:Work
         rdf:about=""><dc:format>image/svg+xml</dc:format><dc:type
           rdf:resource="http://purl.org/dc/dcmitype/StillImage" /><dc:title></dc:title></cc:Work></rdf:RDF></metadata><defs
     id="defs3792" /><sodipodi:namedview
     pagecolor="#ffffff"
     bordercolor="#666666"
     borderopacity="1"
     objecttolerance="10"
     gridtolerance="10"
     guidetolerance="10"
     inkscape:pageopacity="0"
     inkscape:pageshadow="2"
     inkscape:window-width="1920"
     inkscape:window-height="1017"
     id="namedview3790"
     showgrid="false"
     inkscape:snap-to-guides="true"
     inkscape:zoom="15.142858"
     inkscape:cx="24.881003"
     inkscape:cy="23.378185"
     inkscape:window-x="1912"
     inkscape:window-y="-8"
     inkscape:window-maximized="1"
     inkscape:current-layer="svg3788"><inkscape:grid
       type="xygrid"
       id="grid3800"
       empspacing="8" /></sodipodi:namedview><g
     id="g4852"
     style="fill:#000000;fill-opacity:1"><path
       sodipodi:nodetypes="ccccc"
       inkscape:connector-curvature="0"
       id="path3780"
       style="fill:#000000;fill-opacity:1;fill-rule:nonzero;stroke-width:1.12407386"
       d="M 4.719827,23.999999 H 9.261291 L 9.269091,8.000001 H 4.719817 Z" /><g
       id="g4846"
       transform="matrix(1,0,0,-1,-0.280176,32)"
       style="fill:#000000;fill-opacity:1"><path
         style="clip-rule:evenodd;fill:#000000;fill-opacity:1;fill-rule:nonzero;stroke-width:1.12407386;stroke-linejoin:round;stroke-miterlimit:1.41420996"
         d="m 19.476562,24.380751 c -1.190394,0.01574 -2.369462,-0.222316 -3.460937,-0.701172 -1.992983,-0.876773 -3.567564,-2.49874 -4.384766,-4.517577 -0.403543,-0.979068 -0.611328,-2.027889 -0.611328,-3.087891 -0.0011,-1.067869 0.215486,-2.124979 0.634765,-3.107421 0.420404,-0.988061 1.022796,-1.887439 1.779297,-2.648438 1.602447,-1.61467 3.785847,-2.516925 6.058594,-2.515625 0.639691,-3.66e-4 1.270192,0.07826 1.884766,0.216797 -1.551807,1.771359 -3.32545,3.403912 -4.783816,5.254404 -0.34826,0.481517 -0.517631,0.778705 -0.686888,1.261221 -0.150621,0.509206 -0.226562,1.035843 -0.226562,1.566406 -0.0011,0.542928 0.077,1.080287 0.234375,1.59961 0.156246,0.502459 0.404193,0.971401 0.732422,1.382812 0.314741,0.401295 0.717158,0.729968 1.175781,0.957031 0.521121,0.244 1.092704,0.362016 1.669922,0.353516 0.577218,0.0085 1.148801,-0.109516 1.669922,-0.353516 0.458623,-0.227063 0.86104,-0.555736 1.175781,-0.957031 0.328229,-0.411411 0.576176,-0.880352 0.732422,-1.382812 0.157375,-0.519323 0.235475,-1.056682 0.234375,-1.59961 0,-0.38486 -0.05338,-0.76505 -0.132812,-1.140625 l 3.291015,-3.544922 c 0.34026,0.484863 0.634074,1.002915 0.867188,1.550782 0.419279,0.982442 0.635865,2.039552 0.634765,3.107421 0,1.060003 -0.207785,2.108823 -0.611328,3.087891 -0.817202,2.018837 -2.391782,3.640804 -4.384766,4.517577 -1.091473,0.478856 -2.270543,0.716912 -3.460937,0.701172 -0.0048,-4e-4 -0.01082,-0.0016 -0.01563,-0.002 -0.0048,4e-4 -0.01082,0.0016 -0.01563,0.002 z"
         id="path3782-6-0"
         inkscape:connector-curvature="0"
         sodipodi:nodetypes="ccccccccccccccccccccccccccccc" /><path
         style="clip-rule:evenodd;fill:#000000;fill-opacity:1;fill-rule:evenodd;stroke:none;stroke-width:1px;stroke-linecap:butt;stroke-linejoin:miter;stroke-miterlimit:1.41420996;stroke-opacity:1"
         d="m 17.636481,14.063218 h 4.544087 L 28,7.813218 h -4.524318 z"
         id="path4646-1-3"
         inkscape:connector-curvature="0"
         sodipodi:nodetypes="ccccc" /></g></g></svg>